# Blender v2.82 (sub 7) OBJ File: ''
# www.blender.org
o Cube_Cube.001
v -0.701824 2.571293 0.610414
v -0.701824 4.430268 0.610414
v -0.701824 2.571293 -1.248562
v -0.701824 4.430268 -1.248562
v 1.157151 2.571293 0.610414
v 1.157151 4.430268 0.610414
v 1.157151 2.571293 -1.248562
v 1.157151 4.430268 -1.248562
v 2.051033 2.354222 0.375197
v 2.051033 4.213197 0.375197
v 2.051033 2.354222 -1.483778
v 2.051033 4.213197 -1.483778
v 3.910008 2.354222 0.375197
v 3.910008 4.213197 0.375197
v 3.910008 2.354222 -1.483778
v 3.910008 4.213197 -1.483778
v 4.539971 2.382159 0.470444
v 4.539971 4.241134 0.470444
v 4.539971 2.382159 -1.388531
v 4.539971 4.241134 -1.388531
v 6.398946 2.382159 0.470444
v 6.398946 4.241134 0.470444
v 6.398946 2.382159 -1.388531
v 6.398946 4.241134 -1.388531
v 6.920450 2.390505 0.394717
v 6.920450 4.249481 0.394717
v 6.920450 2.390505 -1.464258
v 6.920450 4.249481 -1.464258
v 8.779426 2.390505 0.394717
v 8.779426 4.249481 0.394717
v 8.779426 2.390505 -1.464258
v 8.779426 4.249481 -1.464258
v 9.373426 2.358386 0.335571
v 9.373426 4.217361 0.335571
v 9.373426 2.358386 -1.523404
v 9.373426 4.217361 -1.523404
v 11.232402 2.358386 0.335571
v 11.232402 4.217361 0.335571
v 11.232402 2.358386 -1.523404
v 11.232402 4.217361 -1.523404
v 10.073351 1.911790 2.746388
v 10.073351 3.770765 2.746388
v 10.073351 1.911790 0.887413
v 10.073351 3.770765 0.887413
v 11.932326 1.911790 2.746388
v 11.932326 3.770765 2.746388
v 11.932326 1.911790 0.887413
v 11.932326 3.770765 0.887413
v 7.656934 1.982145 2.524415
v 7.656934 3.841121 2.524415
v 7.656934 1.982145 0.665440
v 7.656934 3.841121 0.665440
v 9.515909 1.982145 2.524415
v 9.515909 3.841121 2.524415
v 9.515909 1.982145 0.665440
v 9.515909 3.841121 0.665440
v 0.019864 2.818488 5.999991
v 0.019864 2.818488 4.141016
v 8.807199 2.582027 5.999991
v 8.807199 2.582027 4.141016
v 1.863935 3.051198 5.273849
v 1.863935 3.051198 4.867157
v 6.978311 2.913573 4.867157
v 6.978311 2.913573 5.273849
v 10.709894 2.618691 3.940928
v 10.709894 4.477667 3.940928
v 12.566998 2.618691 4.024323
v 12.566998 4.477667 4.024323
v 10.660235 2.452096 7.609548
v 10.660235 4.311071 7.609548
v 12.517339 2.452096 7.692944
v 12.517339 4.311071 7.692944
vt 0.152273 0.644248
vt 0.222727 0.644248
vt 0.222727 0.714702
vt 0.152273 0.714702
vt 0.222727 0.785156
vt 0.152273 0.785156
vt 0.222727 0.855610
vt 0.152273 0.855610
vt 0.222727 0.926064
vt 0.152273 0.926064
vt 0.081819 0.785156
vt 0.081819 0.855610
vt 0.152273 0.644248
vt 0.222727 0.644248
vt 0.222727 0.714702
vt 0.152273 0.714702
vt 0.222727 0.785156
vt 0.152273 0.785156
vt 0.222727 0.855610
vt 0.152273 0.855610
vt 0.222727 0.926064
vt 0.152273 0.926064
vt 0.081819 0.785156
vt 0.081819 0.855610
vt 0.152273 0.644248
vt 0.222727 0.644248
vt 0.222727 0.714702
vt 0.152273 0.714702
vt 0.222727 0.785156
vt 0.152273 0.785156
vt 0.222727 0.855610
vt 0.152273 0.855610
vt 0.222727 0.926064
vt 0.152273 0.926064
vt 0.081819 0.785156
vt 0.081819 0.855610
vt 0.152273 0.644248
vt 0.222727 0.644248
vt 0.222727 0.714702
vt 0.152273 0.714702
vt 0.222727 0.785156
vt 0.152273 0.785156
vt 0.222727 0.855610
vt 0.152273 0.855610
vt 0.222727 0.926064
vt 0.152273 0.926064
vt 0.081819 0.785156
vt 0.081819 0.855610
vt 0.152273 0.644248
vt 0.222727 0.644248
vt 0.222727 0.714702
vt 0.152273 0.714702
vt 0.222727 0.785156
vt 0.152273 0.785156
vt 0.222727 0.855610
vt 0.152273 0.855610
vt 0.222727 0.926064
vt 0.152273 0.926064
vt 0.081819 0.785156
vt 0.081819 0.855610
vt 0.152273 0.644248
vt 0.222727 0.644248
vt 0.222727 0.714702
vt 0.152273 0.714702
vt 0.222727 0.785156
vt 0.152273 0.785156
vt 0.222727 0.855610
vt 0.152273 0.855610
vt 0.222727 0.926064
vt 0.152273 0.926064
vt 0.081819 0.785156
vt 0.081819 0.855610
vt 0.152273 0.644248
vt 0.222727 0.644248
vt 0.222727 0.714702
vt 0.152273 0.714702
vt 0.222727 0.785156
vt 0.152273 0.785156
vt 0.222727 0.855610
vt 0.152273 0.855610
vt 0.222727 0.926064
vt 0.152273 0.926064
vt 0.081819 0.785156
vt 0.081819 0.855610
vt 0.222727 0.855610
vt 0.222727 0.785156
vt 0.222727 0.785156
vt 0.222727 0.855610
vt 0.293181 0.785156
vt 0.293181 0.855610
vt 0.222727 0.714702
vt 0.222727 0.644248
vt 0.222727 0.644248
vt 0.222727 0.714702
vt 0.222727 0.926064
vt 0.222727 0.926064
vt 0.152273 0.644248
vt 0.222727 0.644248
vt 0.222727 0.714702
vt 0.152273 0.714702
vt 0.222727 0.785156
vt 0.152273 0.785156
vt 0.222727 0.855610
vt 0.152273 0.855610
vt 0.222727 0.926064
vt 0.152273 0.926064
vt 0.081819 0.785156
vt 0.081819 0.855610
vn -1.0000 0.0000 0.0000
vn 0.0000 0.0000 -1.0000
vn 1.0000 0.0000 0.0000
vn 0.0000 0.0000 1.0000
vn 0.0000 -1.0000 0.0000
vn 0.1784 0.9840 0.0000
vn 0.0269 0.9996 0.0000
vn -0.1252 0.9921 0.0000
vn 0.0251 0.9317 0.3623
vn 0.0251 0.9317 -0.3623
vn 0.0449 0.0000 -0.9990
vn 0.9999 0.0000 0.0135
vn -0.0449 0.0000 0.9990
vn -0.9999 0.0000 -0.0135
vn 0.0020 -0.9990 -0.0453
s off
f 1/1/1 2/2/1 4/3/1 3/4/1
f 3/4/2 4/3/2 8/5/2 7/6/2
f 7/6/3 8/5/3 6/7/3 5/8/3
f 5/8/4 6/7/4 2/9/4 1/10/4
f 3/11/5 7/6/5 5/8/5 1/12/5
f 9/13/1 10/14/1 12/15/1 11/16/1
f 11/16/2 12/15/2 16/17/2 15/18/2
f 15/18/3 16/17/3 14/19/3 13/20/3
f 13/20/4 14/19/4 10/21/4 9/22/4
f 11/23/5 15/18/5 13/20/5 9/24/5
f 17/25/1 18/26/1 20/27/1 19/28/1
f 19/28/2 20/27/2 24/29/2 23/30/2
f 23/30/3 24/29/3 22/31/3 21/32/3
f 21/32/4 22/31/4 18/33/4 17/34/4
f 19/35/5 23/30/5 21/32/5 17/36/5
f 25/37/1 26/38/1 28/39/1 27/40/1
f 27/40/2 28/39/2 32/41/2 31/42/2
f 31/42/3 32/41/3 30/43/3 29/44/3
f 29/44/4 30/43/4 26/45/4 25/46/4
f 27/47/5 31/42/5 29/44/5 25/48/5
f 33/49/1 34/50/1 36/51/1 35/52/1
f 35/52/2 36/51/2 40/53/2 39/54/2
f 39/54/3 40/53/3 38/55/3 37/56/3
f 37/56/4 38/55/4 34/57/4 33/58/4
f 35/59/5 39/54/5 37/56/5 33/60/5
f 41/61/1 42/62/1 44/63/1 43/64/1
f 43/64/2 44/63/2 48/65/2 47/66/2
f 47/66/3 48/65/3 46/67/3 45/68/3
f 45/68/4 46/67/4 42/69/4 41/70/4
f 43/71/5 47/66/5 45/68/5 41/72/5
f 49/73/1 50/74/1 52/75/1 51/76/1
f 51/76/2 52/75/2 56/77/2 55/78/2
f 55/78/3 56/77/3 54/79/3 53/80/3
f 53/80/4 54/79/4 50/81/4 49/82/4
f 51/83/5 55/78/5 53/80/5 49/84/5
f 59/85/6 60/86/6 63/87/6 64/88/6
f 63/87/7 62/89/7 61/90/7 64/88/7
f 58/91/8 57/92/8 61/93/8 62/94/8
f 57/95/9 59/85/9 64/88/9 61/96/9
f 60/86/10 58/91/10 62/94/10 63/87/10
f 65/97/11 66/98/11 68/99/11 67/100/11
f 67/100/12 68/99/12 72/101/12 71/102/12
f 71/102/13 72/101/13 70/103/13 69/104/13
f 69/104/14 70/103/14 66/105/14 65/106/14
f 67/107/15 71/102/15 69/104/15 65/108/15
o Cube.001_Cube.009
v -0.701824 4.430268 0.610414
v -0.701824 4.430268 -1.248562
v 1.157151 4.430268 0.610414
v 1.157151 4.430268 -1.248562
v -0.313313 4.996848 -0.115728
v -0.313313 4.996848 -0.522420
v 0.768641 4.996848 -0.522420
v 0.768641 4.996848 -0.115728
v 2.051033 4.213197 0.375197
v 2.051033 4.213197 -1.483778
v 3.910008 4.213197 0.375197
v 3.910008 4.213197 -1.483778
v 2.439544 4.779777 -0.350944
v 2.439544 4.779777 -0.757637
v 3.521498 4.779777 -0.757637
v 3.521498 4.779777 -0.350944
v 4.539971 4.241134 0.470444
v 4.539971 4.241134 -1.388531
v 6.398946 4.241134 0.470444
v 6.398946 4.241134 -1.388531
v 4.928482 4.807714 -0.255697
v 4.928482 4.807714 -0.662390
v 6.010436 4.807714 -0.662390
v 6.010436 4.807714 -0.255697
v 6.920450 4.249481 0.394717
v 6.920450 4.249481 -1.464258
v 8.779426 4.249481 0.394717
v 8.779426 4.249481 -1.464258
v 7.308960 4.816061 -0.331424
v 7.308960 4.816061 -0.738117
v 8.390915 4.816061 -0.738117
v 8.390915 4.816061 -0.331424
v 9.373426 4.217361 0.335571
v 9.373426 4.217361 -1.523404
v 11.232402 4.217361 0.335571
v 11.232402 4.217361 -1.523404
v 9.761937 4.783941 -0.390570
v 9.761937 4.783941 -0.797263
v 10.843891 4.783941 -0.797263
v 10.843891 4.783941 -0.390570
v 10.073351 3.770765 2.746388
v 10.073351 3.770765 0.887413
v 11.932326 3.770765 2.746388
v 11.932326 3.770765 0.887413
v 10.461862 4.337345 2.020247
v 10.461862 4.337345 1.613554
v 11.543816 4.337345 1.613554
v 11.543816 4.337345 2.020247
v 7.656934 3.841121 2.524415
v 7.656934 3.841121 0.665440
v 9.515909 3.841121 2.524415
v 9.515909 3.841121 0.665440
v 8.045444 4.407701 1.798274
v 8.045444 4.407701 1.391581
v 9.127398 4.407701 1.391581
v 9.127398 4.407701 1.798274
v 10.709894 4.477667 3.940928
v 12.566998 4.477667 4.024323
v 10.660235 4.311071 7.609548
v 12.517339 4.311071 7.692944
v 11.417875 5.044247 4.361623
v 11.824159 5.044247 4.379868
v 11.809358 4.877651 7.272249
v 11.403074 4.877651 7.254004
vt 0.822459 0.724687
vt 0.940249 0.723412
vt 0.894281 0.759998
vt 0.873499 0.758072
vt 0.889208 0.812241
vt 0.868427 0.810315
vt 0.940249 0.845625
vt 0.822459 0.846901
vt 0.695133 0.943394
vt 0.577343 0.944669
vt 0.623311 0.908083
vt 0.644093 0.910009
vt 0.628384 0.855840
vt 0.649165 0.857766
vt 0.577343 0.822456
vt 0.695133 0.821180
vt 0.704466 0.724687
vt 0.822256 0.723412
vt 0.776288 0.759998
vt 0.755507 0.758072
vt 0.771216 0.812241
vt 0.750435 0.810315
vt 0.822256 0.845625
vt 0.704466 0.846901
vt 0.704466 0.848379
vt 0.822256 0.847103
vt 0.776288 0.883690
vt 0.755507 0.881764
vt 0.771216 0.935932
vt 0.750435 0.934006
vt 0.822256 0.969317
vt 0.704466 0.970593
vt 0.940249 0.969317
vt 0.822459 0.970593
vt 0.868427 0.934006
vt 0.889208 0.935932
vt 0.873499 0.881764
vt 0.894281 0.883690
vt 0.822459 0.848379
vt 0.940249 0.847103
vt 0.822256 0.721934
vt 0.704466 0.723209
vt 0.750435 0.686623
vt 0.771216 0.688549
vt 0.755507 0.634380
vt 0.776288 0.636306
vt 0.704466 0.600996
vt 0.822256 0.599720
vt 0.822459 0.600995
vt 0.940249 0.599720
vt 0.894281 0.636306
vt 0.873499 0.634380
vt 0.889209 0.688549
vt 0.868427 0.686623
vt 0.940249 0.721934
vt 0.822459 0.723209
vt 0.587073 0.599752
vt 0.704264 0.599720
vt 0.657377 0.638197
vt 0.635044 0.636692
vt 0.650818 0.783442
vt 0.629064 0.780925
vt 0.704264 0.820978
vt 0.577343 0.818605
vn 0.8247 0.5655 0.0000
vn 0.0000 1.0000 0.0000
vn -0.8247 0.5655 0.0000
vn 0.0000 0.7884 0.6152
vn 0.0000 0.7884 -0.6152
vn -0.0370 0.5655 0.8239
vn -0.0026 0.9983 0.0575
vn 0.0370 0.5655 -0.8239
vn -0.6161 0.7869 0.0339
vn 0.6136 0.7883 0.0461
s off
f 75/109/16 76/110/16 79/111/16 80/112/16
f 79/111/17 78/113/17 77/114/17 80/112/17
f 74/115/18 73/116/18 77/114/18 78/113/18
f 73/116/19 75/109/19 80/112/19 77/114/19
f 76/110/20 74/115/20 78/113/20 79/111/20
f 83/117/16 84/118/16 87/119/16 88/120/16
f 87/119/17 86/121/17 85/122/17 88/120/17
f 82/123/18 81/124/18 85/122/18 86/121/18
f 81/124/19 83/117/19 88/120/19 85/122/19
f 84/118/20 82/123/20 86/121/20 87/119/20
f 91/125/16 92/126/16 95/127/16 96/128/16
f 95/127/17 94/129/17 93/130/17 96/128/17
f 90/131/18 89/132/18 93/130/18 94/129/18
f 89/132/19 91/125/19 96/128/19 93/130/19
f 92/126/20 90/131/20 94/129/20 95/127/20
f 99/133/16 100/134/16 103/135/16 104/136/16
f 103/135/17 102/137/17 101/138/17 104/136/17
f 98/139/18 97/140/18 101/138/18 102/137/18
f 97/140/19 99/133/19 104/136/19 101/138/19
f 100/134/20 98/139/20 102/137/20 103/135/20
f 107/141/16 108/142/16 111/143/16 112/144/16
f 111/143/17 110/145/17 109/146/17 112/144/17
f 106/147/18 105/148/18 109/146/18 110/145/18
f 105/148/19 107/141/19 112/144/19 109/146/19
f 108/142/20 106/147/20 110/145/20 111/143/20
f 115/149/16 116/150/16 119/151/16 120/152/16
f 119/151/17 118/153/17 117/154/17 120/152/17
f 114/155/18 113/156/18 117/154/18 118/153/18
f 113/156/19 115/149/19 120/152/19 117/154/19
f 116/150/20 114/155/20 118/153/20 119/151/20
f 123/157/16 124/158/16 127/159/16 128/160/16
f 127/159/17 126/161/17 125/162/17 128/160/17
f 122/163/18 121/164/18 125/162/18 126/161/18
f 121/164/19 123/157/19 128/160/19 125/162/19
f 124/158/20 122/163/20 126/161/20 127/159/20
f 131/165/21 132/166/21 135/167/21 136/168/21
f 135/167/22 134/169/22 133/170/22 136/168/22
f 130/171/23 129/172/23 133/170/23 134/169/23
f 129/172/24 131/165/24 136/168/24 133/170/24
f 132/166/25 130/171/25 134/169/25 135/167/25
