# Blender v2.82 (sub 7) OBJ File: ''
# www.blender.org
o Icosphere.007_Icosphere.008
v 1.507515 -2.172257 -0.877028
v 0.439515 -1.106218 -1.880004
v 0.853208 -2.122617 -0.473749
v 1.255055 -1.322369 0.109748
v 0.311196 -1.347435 -0.263728
v 0.538721 -1.945249 -1.423893
v 1.637836 -1.704537 -1.815709
v 0.868698 -0.245106 -1.767415
v 1.991190 -0.591650 -1.379910
v 0.843944 -1.893829 0.784879
v -1.499557 -1.847340 -0.606637
v -0.208630 -2.081805 -0.216340
v -1.660018 -1.385594 -0.019518
v -0.640526 -2.128101 -0.821476
v -1.388892 -1.371031 -1.304178
v -1.079140 -0.060984 -0.697873
v -0.087417 -0.991715 -2.213054
v -1.273051 -0.089961 -1.581256
v -0.492955 -0.137489 -2.361541
v -0.889750 0.544046 -1.631406
v 0.005778 0.599152 -2.059015
v -1.091170 -1.236017 1.168549
v -0.315703 -0.276611 2.574500
v -0.113454 -1.286072 2.398064
v -1.015520 -1.317790 1.908506
v -0.137827 -1.659229 1.112191
v 0.761112 -0.409998 2.146404
v -1.303874 -0.311606 1.477658
v -0.731170 0.318016 1.860924
v 2.066096 0.562376 0.426487
v 1.074400 1.573816 -0.261406
v 1.654277 0.249058 0.980274
v 1.504620 1.194863 0.872026
v 0.710937 1.249820 0.885401
v -0.322939 1.615652 1.268512
v 0.516690 1.291959 1.562867
v -0.717235 0.958696 1.823256
v 0.285796 1.353680 0.287733
v 2.348855 -1.589192 0.212148
v 2.309553 -1.217980 1.173416
v 2.163253 -1.326996 -0.509554
v 3.038873 -0.740714 0.652057
v 1.876077 -0.283433 1.362291
v 2.574219 -0.847435 -0.653533
v 2.398395 0.300208 0.942871
v 2.868564 0.133630 -0.119943
v 1.771153 -0.945540 1.255952
v 0.942093 0.593096 1.241094
v 2.004842 0.526396 -1.381297
v 1.436662 -0.446980 -1.780487
v 2.115702 -0.461505 -0.859287
v -0.104409 1.586170 -0.342990
v 0.411442 0.698775 -0.803397
v -1.044581 1.379847 -0.451401
v -0.538269 -1.247275 0.654293
v -1.982692 -1.250703 0.800483
v -1.850764 -0.877080 -0.413038
v -2.186192 0.191593 0.239703
v -1.540280 -0.388957 -0.708877
v -1.464421 0.514096 -0.181154
v -1.743721 0.341169 0.939053
v -1.210739 0.536927 0.716090
v -0.879808 1.298236 0.582022
v 1.524159 0.975439 -0.692215
v 1.964550 0.400803 -0.274142
v -1.023808 0.055458 1.291957
v 0.370478 0.235142 1.863428
v 0.662991 -1.216464 1.851945
v 0.528696 -1.457482 1.533475
v 0.554132 0.573452 -1.438291
v -0.399728 0.791307 -1.144235
v 0.036649 -1.340491 -1.257708
v -0.976792 -0.942508 -1.534727
v 0.258086 -0.611741 -0.359100
v -1.219649 -1.607272 0.369969
v 0.120331 -0.411805 -0.259326
v -0.131123 -1.710449 0.297535
v 1.416923 -1.358863 0.826205
v 0.773315 -1.588497 -0.035963
v 0.262756 -0.360165 -0.263215
v 0.224423 -0.312619 -0.319595
v 0.230923 -0.306671 -0.294809
v 0.190664 -0.343611 -0.304765
vt 0.909258 0.168639
vt 0.833047 0.095287
vt 0.844868 0.215454
vt 0.192704 0.184551
vt 0.078786 0.086177
vt 0.084473 0.207450
vt 0.282582 0.111143
vt 0.227273 0.072170
vt 0.303631 0.233417
vt 0.485562 0.143363
vt 0.409091 0.072170
vt 0.630223 0.371839
vt 0.699554 0.197746
vt 0.556150 0.311323
vt 0.473823 0.374034
vt 0.355727 0.343717
vt 0.136364 0.072170
vt 0.109621 0.113565
vt 0.183675 0.126245
vt 0.818181 0.000000
vt 0.799457 0.090496
vt 0.901963 0.149728
vt 0.781465 0.141667
vt 0.090909 0.000000
vt 0.042892 0.148714
vt 0.155830 0.086218
vt 0.225295 0.097578
vt 0.120051 0.183908
vt 0.841071 0.212997
vt 0.215932 0.374864
vt 0.312628 0.173339
vt 0.186238 0.275451
vt 0.454545 0.000000
vt 0.425351 0.124452
vt 0.513341 0.080241
vt 0.567710 0.239724
vt 0.363636 0.472382
vt 0.449008 0.367674
vt 0.300987 0.387803
vt 0.720065 0.129926
vt 0.846814 0.144806
vt 0.772727 0.072170
vt 0.873077 0.297305
vt 0.729084 0.267449
vt 0.235633 0.135409
vt 0.101552 0.137937
vt 0.183833 0.259467
vt 0.807717 0.354657
vt 0.933564 0.294185
vt 0.786581 0.176880
vt 0.916702 0.416549
vt 0.428456 0.255462
vt 0.636551 0.350583
vt 0.494323 0.175023
vt 0.670349 0.129146
vt 0.875049 0.152447
vt 0.777035 0.065329
vt 0.875315 0.251927
vt 0.690553 0.250863
vt 0.263590 0.366184
vt 0.285157 0.140428
vt 0.185358 0.222984
vt 0.408390 0.282368
vt 0.181818 0.472382
vt 0.096363 0.322772
vt 0.389721 0.430966
vt 0.536936 0.419555
vt 0.526894 0.261180
vt 0.181018 0.111288
vt 0.201858 0.328459
vt 0.312868 0.173681
vt 0.123024 0.144244
vt 0.063742 0.207934
vt 0.204108 0.225754
vt 0.730730 0.459697
vt 0.767456 0.370270
vt 0.849972 0.144016
vt 0.790184 0.044452
vt 0.744537 0.098473
vt 0.608271 0.084176
vt 0.607010 0.089374
vt 0.608261 0.086543
vt 0.827312 0.220134
vt 0.799384 0.179344
vt 0.807179 0.223078
vt 0.603124 0.091000
vt 0.602587 0.085797
vt 0.599169 0.089295
vt 0.647028 0.055710
vt 0.590909 0.072170
vt 0.545129 0.121223
vt 0.666730 0.137755
vt 0.644876 0.052706
vt 0.035235 0.167029
vt 0.272727 0.000000
vt 0.454545 0.000000
vt 0.090909 0.000000
vt 0.053720 0.107982
vt 0.214001 0.253685
vt 0.363115 0.250493
vt 0.227191 0.106804
vt 0.454545 0.000000
vt 0.384118 0.090192
vt 0.470356 0.119335
vt 0.521413 0.181394
vt 0.658424 0.192716
vt 0.652484 0.081820
vt 0.299347 0.042266
vt 0.445839 0.053901
vt 0.500000 0.072170
vt 0.380046 0.249611
vt 0.325294 0.385774
vt 0.371344 0.116229
vt 0.272612 0.027578
vt 0.225387 0.374721
vt 0.049242 0.236191
vt 0.121058 0.367035
vt 0.679863 0.396491
vt 0.746834 0.441324
vt 0.735722 0.373577
vt 0.545454 0.472382
vt 0.593657 0.394351
vt 0.818181 0.000000
vt 0.090909 0.000000
vt 0.037808 0.126262
vt 0.307424 0.055090
vt 0.227273 0.072170
vt 0.088930 0.116719
vt 0.147790 0.080416
vt 0.090909 0.000000
vt 0.049242 0.078730
vt 0.720358 0.368930
vt 0.205870 0.349528
vt 0.876646 0.402951
vt 0.943253 0.375090
vt 0.765521 0.360400
vt 0.877852 0.255504
vt 0.757604 0.189492
vt 0.675837 0.271545
vt 0.899391 0.350606
vt 0.579141 0.215513
vt 0.487937 0.326317
vt 0.708631 0.442784
vt 0.772727 0.400212
vt 0.909090 0.472382
vt 0.953821 0.380914
vt 0.539120 0.387326
vt 0.090909 0.314921
vt 0.224208 0.354489
vt 0.155184 0.426250
vt 0.319753 0.389940
vt 0.363636 0.472382
vt 0.397582 0.395532
vt 0.545454 0.472382
vt 0.590909 0.400212
vt 0.517838 0.365128
vt 0.688123 0.191122
vt 0.681818 0.072170
vt 0.625917 0.055091
vt 0.363094 0.192282
vt 0.319075 0.363825
vt 0.548678 0.329788
vt 0.451947 0.180566
vt 0.315496 0.067905
vt 0.272727 0.000000
vt 0.254072 0.088043
vt 0.482202 0.043912
vt 0.435836 0.119413
vt 0.876792 0.247430
vt 0.815193 0.144617
vt 0.914647 0.355644
vt 0.500000 0.400212
vt 0.575724 0.335102
vt 0.742202 0.441550
vt 0.891455 0.442805
vt 0.922998 0.333109
vt 0.636929 0.179731
vt 0.715394 0.311917
vt 0.318182 0.400212
vt 0.363636 0.472382
vt 0.427925 0.386620
vt 0.704908 0.377606
vt 0.837391 0.135896
vt 0.863636 0.078730
vt 0.818181 0.000000
vt 0.759652 0.081605
vt 0.085499 0.239632
vt 0.869309 0.409220
vt 0.909090 0.472382
vt 0.915628 0.375827
vt 0.049242 0.236191
vt 0.118671 0.363008
vt 0.274096 0.002174
vt 0.282139 0.085110
vt 0.030303 0.157461
vt 0.197143 0.439855
vt 0.172698 0.456586
vt 0.364007 0.261871
vt 0.354546 0.399086
vt 0.425384 0.330009
vt 0.887974 0.414806
vt 0.941883 0.353628
vt 0.883285 0.250845
vt 0.833645 0.358042
vt 0.034283 0.146395
vt 0.654929 0.367060
vt 0.902592 0.157927
vt 0.675180 0.245132
vt 0.623816 0.376463
vt 0.331295 0.300932
vt 0.377206 0.409232
vt 0.296648 0.384672
vt 0.547456 0.464120
vt 0.893215 0.440682
vt 0.849183 0.389782
vt 0.592712 0.391926
vt 0.652432 0.364992
vt 0.093736 0.266219
vt 0.167881 0.434167
vt 0.792151 0.041329
vt 0.941189 0.218111
vt 0.338821 0.101092
vt 0.707970 0.120702
vt 0.384193 0.264553
vt 0.354708 0.304047
vt 0.379588 0.319710
vt 0.875807 0.107749
vt 0.388824 0.130857
vt 0.534939 0.124635
vn 0.1079 -0.6205 0.7767
vn -0.7738 -0.5978 0.2095
vn -0.7462 -0.6539 0.1249
vn -0.1970 -0.4861 -0.8514
vn 0.9740 -0.0369 -0.2237
vn 0.0733 0.0396 -0.9965
vn 0.0198 0.1199 -0.9926
vn 0.6016 0.1184 -0.7900
vn -0.7365 -0.6755 0.0364
vn -0.2773 -0.9225 0.2685
vn -0.0373 -0.8073 0.5890
vn -0.2297 -0.9278 0.2939
vn -0.6502 -0.6734 0.3519
vn -0.0056 -0.6133 0.7898
vn -0.8212 0.1979 -0.5353
vn 0.0138 -0.9387 -0.3445
vn 0.5068 -0.1414 -0.8504
vn -0.1929 0.9396 -0.2829
vn 0.3868 -0.8065 0.4472
vn 0.3582 -0.0906 0.9292
vn -0.9665 -0.2463 0.0716
vn 0.1336 0.2540 0.9579
vn -0.0154 0.6505 0.7594
vn 0.5668 0.2559 -0.7831
vn 0.4231 -0.8017 0.4223
vn 0.5086 -0.3492 0.7870
vn 0.5779 -0.2179 0.7865
vn -0.7170 0.1342 -0.6840
vn -0.6616 0.1418 -0.7363
vn -0.2253 0.9678 0.1124
vn -0.0792 0.7221 -0.6872
vn 0.3694 0.5881 -0.7195
vn -0.9653 -0.2011 -0.1668
vn -0.9050 0.1323 0.4044
vn 0.5195 0.8490 0.0967
vn 0.5320 -0.6147 0.5823
vn -0.6761 0.7368 0.0005
vn 0.1537 -0.3544 0.9224
vn 0.6761 -0.7368 -0.0005
vn 0.6129 -0.7466 -0.2587
vn 0.8128 -0.5586 -0.1655
vn -0.5827 -0.5655 0.5837
vn -0.1553 -0.9791 -0.1314
vn 0.0390 -0.8965 -0.4413
vn 0.9304 -0.1679 -0.3258
vn -0.6890 -0.4073 -0.5994
vn -0.1381 -0.9532 0.2689
vn -0.6301 -0.3389 -0.6987
vn -0.0021 -0.9373 -0.3485
vn 0.7890 -0.5728 -0.2219
vn -0.3806 -0.7345 -0.5619
vn 0.0389 -0.5096 -0.8596
vn 0.5938 -0.7150 -0.3691
vn -0.9083 -0.2641 -0.3244
vn 0.0389 -0.5022 -0.8639
vn -0.9394 -0.3426 0.0127
vn -0.6833 0.2986 -0.6663
vn -0.4117 0.6018 -0.6843
vn -0.2774 -0.9135 -0.2975
vn 0.4034 0.0647 -0.9127
vn -0.6540 0.3420 -0.6747
vn -0.7372 0.1473 0.6594
vn -0.3845 0.5613 -0.7329
vn 0.1751 0.9726 -0.1526
vn 0.1848 0.9751 -0.1229
vn 0.1152 -0.9546 0.2748
vn -0.1178 -0.9531 0.2788
vn -0.4079 -0.9111 -0.0590
vn 0.5607 -0.3433 0.7535
vn -0.4564 -0.2411 0.8565
vn -0.1075 -0.9735 0.2021
vn 0.3664 0.5508 0.7499
vn -0.7657 0.6352 0.1007
vn 0.0575 0.7832 0.6191
vn 0.4093 0.1674 0.8969
vn 0.7330 0.1907 0.6530
vn 0.0485 0.4888 0.8710
vn 0.8463 0.4790 -0.2331
vn 0.7296 0.6821 -0.0489
vn 0.0710 0.9538 0.2920
vn -0.1021 0.9653 0.2404
vn 0.7490 0.6511 -0.1224
vn -0.9185 0.0431 0.3930
vn -0.8770 0.4218 0.2302
vn -0.7068 0.6533 0.2713
vn -0.1276 0.9356 -0.3291
vn 0.3661 0.9303 -0.0213
vn 0.6615 -0.6901 0.2936
vn 0.8105 -0.5321 -0.2449
vn 0.0655 0.3677 -0.9276
vn -0.2014 -0.9361 -0.2883
vn 0.6316 -0.6623 -0.4030
vn 0.9396 -0.1047 -0.3258
vn 0.5586 0.0925 0.8243
vn 0.8466 0.4353 0.3063
vn 0.5366 0.0959 0.8384
vn 0.0008 0.5831 0.8124
vn 0.2992 0.5711 -0.7644
vn 0.4334 0.5595 0.7065
vn 0.4193 0.5654 0.7103
vn 0.9890 0.1383 0.0517
vn -0.0537 0.9066 -0.4186
vn 0.7527 0.6505 0.1012
vn 0.0442 -0.9086 0.4153
vn -0.8751 0.4221 0.2367
vn -0.8633 0.4733 0.1750
vn 0.0372 0.9449 0.3253
vn -0.7992 0.0680 0.5972
vn -0.4336 -0.9008 -0.0224
vn -0.8304 -0.5006 -0.2444
vn -0.3496 -0.3685 0.8614
vn -0.3570 0.9325 0.0549
vn -0.7818 0.1274 -0.6103
vn -0.5910 0.4434 -0.6738
vn -0.3339 0.4963 -0.8014
vn -0.0945 0.6707 0.7357
vn -0.1974 -0.6202 0.7592
vn 0.5167 0.6306 0.5790
vn 0.0656 -0.1684 0.9835
vn 0.7023 0.1032 0.7044
vn 0.2301 0.9732 0.0054
vn -0.0553 0.5557 -0.8295
vn -0.5297 0.6989 -0.4805
vn 0.3139 0.9142 -0.2563
vn -0.0369 0.8813 0.4712
vn 0.7695 0.5828 -0.2612
vn 0.8749 0.4293 0.2241
vn -0.7468 0.6169 0.2483
vn 0.4057 -0.6386 0.6539
vn 0.0021 0.0586 0.9983
vn -0.3912 -0.8276 -0.4025
vn 0.6656 0.4841 -0.5680
vn -0.9264 -0.3103 0.2135
vn 0.7933 -0.5439 0.2734
vn -0.1537 0.3544 -0.9224
vn 0.4267 -0.7986 0.4245
vn -0.1154 -0.7901 -0.6020
vn 0.5842 -0.0081 -0.8116
vn 0.9732 -0.0122 -0.2297
vn 0.1052 -0.3676 -0.9240
s off
f 79/1/1 3/2/1 4/3/1
f 72/4/2 3/5/2 5/6/2
f 72/4/3 6/7/3 3/8/3
f 2/9/4 7/10/4 6/11/4
f 51/12/5 41/13/5 9/14/5
f 50/15/6 7/10/6 2/9/6
f 50/15/7 2/9/7 8/16/7
f 50/15/8 9/14/8 7/10/8
f 77/17/9 26/18/9 55/19/9
f 14/20/10 12/21/10 75/22/10
f 75/22/11 12/21/11 77/23/11
f 14/24/12 75/25/12 11/26/12
f 11/27/13 75/25/13 13/28/13
f 55/29/14 75/22/14 77/23/14
f 59/30/15 15/31/15 57/32/15
f 72/33/16 17/34/16 2/35/16
f 2/35/17 17/34/17 8/36/17
f 71/37/18 21/38/18 20/39/18
f 68/40/19 24/41/19 69/42/19
f 23/43/20 24/41/20 27/44/20
f 22/45/21 25/46/21 28/47/21
f 36/48/22 37/49/22 67/50/22
f 36/48/23 35/51/23 37/49/23
f 51/52/24 46/53/24 44/54/24
f 47/55/25 68/56/25 78/57/25
f 47/55/26 27/58/26 68/56/26
f 47/55/27 43/59/27 27/58/27
f 54/60/28 16/61/28 60/62/28
f 54/60/29 71/63/29 16/61/29
f 52/64/30 54/60/30 63/65/30
f 71/63/31 54/60/31 52/66/31
f 71/63/32 52/67/32 53/68/32
f 56/69/33 58/70/33 57/71/33
f 66/72/34 29/73/34 62/74/34
f 30/75/35 45/76/35 46/53/35
f 69/77/36 10/78/36 78/79/36
f 83/80/37 82/81/37 81/82/37
f 76/83/38 74/84/38 80/85/38
f 82/86/39 83/87/39 81/88/39
f 10/89/40 79/90/40 4/91/40 78/92/40
f 7/10/41 41/13/41 1/93/41
f 79/94/42 5/6/42 3/5/42
f 1/95/43 3/8/43 6/7/43
f 1/96/44 6/11/44 7/10/44
f 7/10/45 9/14/45 41/13/45
f 72/4/46 2/9/46 6/7/46
f 26/18/47 77/17/47 10/97/47 69/98/47
f 18/99/48 19/100/48 17/34/48 73/101/48
f 10/102/49 77/103/49 79/104/49
f 72/105/50 5/106/50 12/107/50
f 15/31/51 14/108/51 11/27/51
f 15/31/52 72/105/52 14/109/52
f 72/105/53 12/110/53 14/109/53
f 11/27/54 57/32/54 15/31/54
f 72/105/55 15/31/55 73/111/55
f 57/32/56 11/27/56 13/28/56
f 15/31/57 59/30/57 73/111/57
f 16/112/58 73/111/58 59/30/58
f 73/101/59 17/113/59 72/114/59
f 17/34/60 19/100/60 21/38/60 8/36/60
f 20/115/61 19/100/61 18/99/61
f 25/46/62 23/116/62 29/117/62 28/47/62
f 20/115/63 21/38/63 19/100/63
f 70/118/64 71/119/64 53/120/64
f 71/121/65 70/122/65 21/38/65
f 26/123/66 69/42/66 24/41/66
f 26/124/67 24/125/67 25/46/67
f 26/126/68 25/127/68 22/45/68
f 68/40/69 27/44/69 24/41/69
f 24/125/70 23/116/70 25/46/70
f 78/128/71 4/129/71 39/130/71 40/131/71
f 67/132/72 23/43/72 27/44/72
f 29/117/73 66/133/73 28/47/73
f 23/43/74 67/134/74 29/135/74
f 33/136/75 48/137/75 32/138/75
f 33/136/76 32/138/76 30/139/76
f 33/136/77 34/140/77 48/137/77
f 30/139/78 65/141/78 64/142/78
f 30/139/79 31/143/79 33/136/79
f 31/143/80 34/144/80 33/136/80
f 31/145/81 38/146/81 34/140/81
f 30/139/82 64/142/82 31/147/82
f 37/148/83 62/74/83 29/73/83
f 37/148/84 63/149/84 62/74/84
f 37/148/85 35/150/85 63/149/85
f 63/151/86 35/152/86 38/153/86
f 35/154/87 36/155/87 38/156/87
f 42/157/88 40/158/88 39/159/88
f 44/54/89 42/157/89 39/159/89
f 8/160/90 70/161/90 49/162/90 50/163/90
f 41/164/91 39/165/91 4/166/91
f 44/54/92 39/167/92 41/168/92
f 44/54/93 46/53/93 42/157/93
f 45/76/94 43/169/94 40/170/94
f 46/53/95 45/76/95 42/157/95
f 45/76/96 40/170/96 42/157/96
f 45/76/97 32/171/97 43/169/97
f 51/52/98 65/172/98 46/173/98
f 27/58/99 43/59/99 48/174/99
f 27/58/100 48/175/100 67/176/100
f 51/177/101 49/162/101 65/178/101
f 70/161/102 53/179/102 64/180/102 49/181/102
f 65/178/103 49/162/103 64/182/103
f 22/183/104 56/184/104 75/185/104 55/186/104
f 63/65/105 60/62/105 62/187/105
f 63/65/106 54/60/106 60/62/106
f 38/188/107 52/189/107 63/190/107
f 56/69/108 28/191/108 61/192/108 58/70/108
f 75/193/109 56/69/109 13/194/109
f 56/69/110 57/71/110 13/194/110
f 22/195/111 28/191/111 56/69/111
f 60/196/112 58/70/112 61/192/112 62/197/112
f 58/70/113 59/198/113 57/71/113
f 58/70/114 60/199/114 59/198/114
f 60/199/115 16/200/115 59/198/115
f 62/201/116 61/202/116 28/203/116 66/204/116
f 47/205/117 78/128/117 40/131/117
f 48/174/118 43/59/118 32/206/118
f 43/169/119 47/207/119 40/170/119
f 67/50/120 48/208/120 36/48/120
f 36/155/121 34/209/121 38/156/121
f 64/142/122 53/210/122 31/211/122
f 53/210/123 38/212/123 31/211/123
f 65/172/124 30/213/124 46/173/124
f 30/214/125 32/171/125 45/215/125
f 53/68/126 52/67/126 38/216/126
f 48/208/127 34/217/127 36/48/127
f 20/115/128 18/99/128 16/218/128 71/219/128
f 3/2/129 1/220/129 41/13/129 4/3/129
f 29/221/130 67/50/130 37/49/130
f 55/222/131 26/126/131 22/45/131
f 8/36/132 21/38/132 70/122/132
f 73/101/133 16/218/133 18/99/133
f 5/106/134 77/223/134 12/107/134
f 74/224/135 76/225/135 80/226/135
f 69/227/136 78/57/136 68/56/136
f 79/104/137 77/103/137 5/228/137
f 9/229/138 50/163/138 49/162/138
f 51/177/139 9/229/139 49/162/139
f 41/168/140 51/52/140 44/54/140
